# xmcd
#
# Track frame offsets: 
#        150
#        17482
#        30317
#        46955
#        69271
#        89549
#        110679
#        123882
#        144241
#        169848
#        184297
#        204912
#
# Disc length: 3370 seconds
#
# Revision: 0
# Processed by: cddbd v1.5.2PL0 Copyright (c) Steve Scherf et al.
# Submitted via: ExactAudioCopy v0.95b4
#
DISCID=970d280c
DTITLE=David Lee Kaiser - 12
DYEAR=2006
DGENRE=Country
TTITLE0=Running
TTITLE1=Psycho
TTITLE2=California
TTITLE3=All I Want
TTITLE4=My Father´s Son
TTITLE5=George Dickel
TTITLE6=High Maintenance Girl
TTITLE7=Me
TTITLE8=Walk
TTITLE9=Closer To My Dreams
TTITLE10=South Sage
TTITLE11=Lost
EXTD=
EXTT0=
EXTT1=
EXTT2=
EXTT3=
EXTT4=
EXTT5=
EXTT6=
EXTT7=
EXTT8=
EXTT9=
EXTT10=
EXTT11=
PLAYORDER=
